<?xml version="1.0" encoding="UTF-8"?>
<!DOCTYPE svg PUBLIC "-//W3C//DTD SVG 1.1//EN" "http://www.w3.org/Graphics/SVG/1.1/DTD/svg11.dtd">
<svg xmlns="http://www.w3.org/2000/svg" version="1.1" width="3051px" height="2746px" style="shape-rendering:geometricPrecision; text-rendering:geometricPrecision; image-rendering:optimizeQuality; fill-rule:evenodd; clip-rule:evenodd" xmlns:xlink="http://www.w3.org/1999/xlink">
<g><path style="opacity:1" fill="#bb8bf1" d="M 1516.5,-0.5 C 1516.83,-0.5 1517.17,-0.5 1517.5,-0.5C 1517.83,0.833333 1518.17,0.833333 1518.5,-0.5C 1518.83,-0.5 1519.17,-0.5 1519.5,-0.5C 1519.83,0.833333 1520.17,0.833333 1520.5,-0.5C 1520.83,-0.5 1521.17,-0.5 1521.5,-0.5C 1521.83,0.833333 1522.17,0.833333 1522.5,-0.5C 1522.83,-0.5 1523.17,-0.5 1523.5,-0.5C 1523.83,0.833333 1524.17,0.833333 1524.5,-0.5C 1524.83,-0.5 1525.17,-0.5 1525.5,-0.5C 1525.83,0.833333 1526.17,0.833333 1526.5,-0.5C 1526.83,-0.5 1527.17,-0.5 1527.5,-0.5C 1527.83,0.833333 1528.17,0.833333 1528.5,-0.5C 1528.83,-0.5 1529.17,-0.5 1529.5,-0.5C 1529.83,0.833333 1530.17,0.833333 1530.5,-0.5C 1530.83,-0.5 1531.17,-0.5 1531.5,-0.5C 1531.83,0.833333 1532.17,0.833333 1532.5,-0.5C 1532.83,-0.5 1533.17,-0.5 1533.5,-0.5C 1533.83,0.833333 1534.17,0.833333 1534.5,-0.5C 1534.83,-0.5 1535.17,-0.5 1535.5,-0.5C 1535.83,0.833333 1536.17,0.833333 1536.5,-0.5C 1536.83,-0.5 1537.17,-0.5 1537.5,-0.5C 1537.83,0.833333 1538.17,0.833333 1538.5,-0.5C 1538.83,-0.5 1539.17,-0.5 1539.5,-0.5C 1539.83,0.833333 1540.17,0.833333 1540.5,-0.5C 1540.83,-0.5 1541.17,-0.5 1541.5,-0.5C 1541.83,0.833333 1542.17,0.833333 1542.5,-0.5C 1542.83,-0.5 1543.17,-0.5 1543.5,-0.5C 1543.83,0.833333 1544.17,0.833333 1544.5,-0.5C 1544.83,-0.5 1545.17,-0.5 1545.5,-0.5C 1545.83,0.833333 1546.17,0.833333 1546.5,-0.5C 1546.83,-0.5 1547.17,-0.5 1547.5,-0.5C 1547.83,0.833333 1548.17,0.833333 1548.5,-0.5C 1548.83,-0.5 1549.17,-0.5 1549.5,-0.5C 1549.83,0.833333 1550.17,0.833333 1550.5,-0.5C 1550.83,-0.5 1551.17,-0.5 1551.5,-0.5C 1551.83,0.833333 1552.17,0.833333 1552.5,-0.5C 1552.83,-0.5 1553.17,-0.5 1553.5,-0.5C 1768.83,5.64021 1959.83,79.8069 2126.5,222C 2280.87,359.82 2378.04,530.987 2418,735.5C 2454.88,948.538 2420.88,1150.2 2316,1340.5C 2196.97,1543.47 2025.3,1681.8 1801,1755.5C 1625.32,1807.88 1448.82,1808.05 1271.5,1756C 1065.74,1689.83 902.91,1567.33 783,1388.5C 659.938,1194.5 614.938,984.17 648,757.5C 679.208,569.749 760.208,407.749 891,271.5C 1052.79,110.068 1246.46,20.0683 1472,1.5C 1473,1.83333 1474,2.16667 1475,2.5C 1488.36,1.32504 1502.2,0.325035 1516.5,-0.5 Z M 1508.5,83.5 C 1591.36,81.2217 1675.02,91.7217 1759.5,115C 1955.53,174.126 2109.37,288.959 2221,459.5C 2328.84,633.027 2368.17,820.694 2339,1022.5C 2331.39,1071.6 2319.39,1119.6 2303,1166.5C 2293.75,1145.24 2280.58,1126.74 2263.5,1111C 2247.32,1098.28 2229.16,1091.12 2209,1089.5C 2203.03,1088.3 2197.03,1087.3 2191,1086.5C 2127.25,1084.21 2065.08,1069.54 2004.5,1042.5C 1993.69,1069.54 1993.86,1096.54 2005,1123.5C 2010.6,1133.43 2016.6,1143.1 2023,1152.5C 2024.21,1155.84 2023.04,1157.67 2019.5,1158C 2012.7,1158.17 2006.03,1157.17 1999.5,1155C 1970.74,1145.12 1943.07,1132.79 1916.5,1118C 1852.93,1082.08 1792.93,1041.08 1736.5,995C 1671.89,941.732 1610.39,884.899 1552,824.5C 1484.52,751.691 1418.52,677.691 1354,602.5C 1308.9,548.318 1269.23,490.318 1235,428.5C 1195.21,350.961 1164.37,269.961 1142.5,185.5C 1205.79,149.554 1273.12,123.054 1344.5,106C 1399.17,93.4789 1453.84,85.9789 1508.5,83.5 Z M 1111.5,606.5 C 1075.76,590.697 1044.59,568.364 1018,539.5C 1007.67,527.167 997.333,514.833 987,502.5C 965.719,472.885 944.052,443.552 922,414.5C 895.512,539.202 921.846,651.202 1001,750.5C 1031.24,786.738 1064.74,819.571 1101.5,849C 1052.45,843.002 1005.78,826.002 961.5,798C 927.422,775.593 894.755,751.259 863.5,725C 862.5,724.333 861.5,724.333 860.5,725C 873.993,796.458 900.827,862.291 941,922.5C 990.947,989.597 1054.78,1039.1 1132.5,1071C 1165.1,1084.2 1198.44,1095.2 1232.5,1104C 1174.81,1114.02 1116.81,1108.36 1058.5,1087C 1019.07,1071.78 981.07,1053.62 944.5,1032.5C 987.274,1143.83 1065.94,1217.33 1180.5,1253C 1234.31,1268.06 1287.81,1276.89 1341,1279.5C 1350.26,1280.04 1359.59,1281.04 1369,1282.5C 1370,1282.17 1371,1281.83 1372,1281.5C 1377,1282.17 1382,1282.83 1387,1283.5C 1387.33,1283.17 1387.67,1282.83 1388,1282.5C 1401.06,1283.54 1414.23,1284.37 1427.5,1285C 1413.72,1295.38 1398.38,1302.72 1381.5,1307C 1365.29,1310.91 1349.12,1313.75 1333,1315.5C 1314.15,1318.55 1295.32,1323.05 1276.5,1329C 1271.67,1330.88 1267,1333.05 1262.5,1335.5C 1312.35,1359.62 1363.68,1380.12 1416.5,1397C 1455.72,1407.38 1494.89,1412.21 1534,1411.5C 1603.9,1417.26 1674.23,1424.26 1745,1432.5C 1762.09,1432.47 1779.26,1433.97 1796.5,1437C 1808.88,1439.26 1818.71,1445.43 1826,1455.5C 1831.46,1469.95 1840.3,1481.78 1852.5,1491C 1855.95,1492.93 1859.61,1494.26 1863.5,1495C 1868.87,1495.39 1874.04,1495.56 1879,1495.5C 1884.8,1493.74 1890.63,1492.07 1896.5,1490.5C 1797.97,1559 1693.64,1570.83 1583.5,1526C 1563.03,1516.68 1542.53,1507.52 1522,1498.5C 1520.75,1499.21 1519.58,1500.04 1518.5,1501C 1520.19,1504.22 1522.03,1507.38 1524,1510.5C 1573.71,1557.85 1632.71,1585.19 1701,1592.5C 1705,1593.17 1709,1593.83 1713,1594.5C 1714,1594.17 1715,1593.83 1716,1593.5C 1733.18,1594.02 1750.35,1594.85 1767.5,1596C 1765.37,1597.38 1763.03,1598.38 1760.5,1599C 1733.14,1605.26 1705.97,1609.43 1679,1611.5C 1666.77,1613.3 1654.77,1614.64 1643,1615.5C 1620.67,1615.5 1598.33,1615.5 1576,1615.5C 1568.16,1614.13 1560.49,1613.13 1553,1612.5C 1552.67,1612.83 1552.33,1613.17 1552,1613.5C 1541.96,1612.11 1531.96,1610.45 1522,1608.5C 1521.67,1608.83 1521.33,1609.17 1521,1609.5C 1498.02,1604.78 1475.52,1599.62 1453.5,1594C 1512.56,1646.17 1579.39,1671.01 1654,1668.5C 1663.92,1666.76 1673.76,1665.93 1683.5,1666C 1617.78,1684.65 1551.94,1695.81 1486,1699.5C 1458,1700.83 1430,1700.83 1402,1699.5C 1258.05,1675.78 1129.55,1617.62 1016.5,1525C 840.654,1375.33 742.654,1184.66 722.5,953C 710.277,716.188 784.777,510.354 946,335.5C 977.929,302.061 1012.43,271.727 1049.5,244.5C 1037.4,295.338 1036.56,346.338 1047,397.5C 1052.61,426.285 1059.95,454.619 1069,482.5C 1082.91,523.97 1097.08,565.304 1111.5,606.5 Z M 1952.5,1595.5 C 2045.93,1521.05 2113.77,1427.72 2156,1315.5C 2161.94,1297.02 2168.27,1278.68 2175,1260.5C 2183.75,1243.1 2194.09,1226.77 2206,1211.5C 2230.35,1182.87 2260.19,1173.87 2295.5,1184.5C 2279.51,1229.96 2259.01,1273.3 2234,1314.5C 2163.55,1431.79 2069.71,1525.46 1952.5,1595.5 Z"/></g>
<g><path style="opacity:1" fill="#bb8bf0" d="M 790.5,2099.5 C 804,2099.51 817.5,2099.51 831,2099.5C 837.486,2100.26 844.152,2101.59 851,2103.5C 858.572,2104.29 866.072,2106.29 873.5,2109.5C 874.499,2120.15 874.832,2130.81 874.5,2141.5C 857.21,2136.94 839.71,2133.61 822,2131.5C 816.667,2131.5 811.333,2131.5 806,2131.5C 747.225,2136.2 711.558,2167.86 699,2226.5C 693.958,2257.34 696.958,2287.34 708,2316.5C 724.324,2349.48 750.657,2368.15 787,2372.5C 793.031,2373.62 799.365,2374.62 806,2375.5C 811.333,2375.5 816.667,2375.5 822,2375.5C 840.751,2373.62 859.251,2370.29 877.5,2365.5C 877.832,2376.19 877.499,2386.85 876.5,2397.5C 848.555,2406.74 819.889,2409.91 790.5,2407C 708.991,2398.49 664.658,2353.15 657.5,2271C 654.899,2233.39 663.066,2197.89 682,2164.5C 708.385,2126.24 744.552,2104.57 790.5,2099.5 Z"/></g>
<g><path style="opacity:1" fill="#9e0441" d="M 1640.5,2099.5 C 1654.45,2099.61 1668.95,2099.61 1684,2099.5C 1686.67,2100.17 1689.33,2100.83 1692,2101.5C 1706.16,2102.05 1720.99,2104.89 1736.5,2110C 1737.49,2125.42 1737.82,2140.92 1737.5,2156.5C 1728.58,2154.47 1719.75,2152.14 1711,2149.5C 1710.67,2149.83 1710.33,2150.17 1710,2150.5C 1700.33,2148.59 1690.33,2146.92 1680,2145.5C 1671.49,2145.99 1663.16,2145.99 1655,2145.5C 1585.69,2155.41 1551.19,2194.58 1551.5,2263C 1554.67,2322.82 1585.51,2355.65 1644,2361.5C 1652.83,2361.33 1661.17,2361.33 1669,2361.5C 1674.4,2360.06 1679.73,2359.06 1685,2358.5C 1685.33,2358.83 1685.67,2359.17 1686,2359.5C 1687.67,2358.83 1689.33,2358.17 1691,2357.5C 1691.33,2357.83 1691.67,2358.17 1692,2358.5C 1692.37,2357.58 1692.87,2356.75 1693.5,2356C 1693.36,2333.76 1693.03,2311.6 1692.5,2289.5C 1670.51,2288.5 1648.51,2288.17 1626.5,2288.5C 1626.5,2273.5 1626.5,2258.5 1626.5,2243.5C 1667.17,2243.17 1707.84,2243.5 1748.5,2244.5C 1747.36,2293.6 1747.36,2342.76 1748.5,2392C 1744.52,2394.22 1740.35,2396.05 1736,2397.5C 1735.67,2397.17 1735.33,2396.83 1735,2396.5C 1729.39,2399.02 1723.72,2400.35 1718,2400.5C 1714.7,2401.63 1711.37,2402.63 1708,2403.5C 1707.67,2403.17 1707.33,2402.83 1707,2402.5C 1697.33,2404.41 1687.33,2406.08 1677,2407.5C 1662.88,2407.4 1648.22,2407.4 1633,2407.5C 1536.93,2395.97 1491.09,2341.3 1495.5,2243.5C 1505.87,2165.64 1549.37,2118.3 1626,2101.5C 1626.33,2101.83 1626.67,2102.17 1627,2102.5C 1631.56,2101.86 1636.06,2100.86 1640.5,2099.5 Z"/></g>
<g><path style="opacity:1" fill="#bb8bf1" d="M 37.5,2104.5 C 97.8333,2104.5 158.167,2104.5 218.5,2104.5C 218.5,2115.5 218.5,2126.5 218.5,2137.5C 170.5,2137.5 122.5,2137.5 74.5,2137.5C 74.5,2169.5 74.5,2201.5 74.5,2233.5C 117.167,2233.5 159.833,2233.5 202.5,2233.5C 202.5,2244.5 202.5,2255.5 202.5,2266.5C 159.833,2266.5 117.167,2266.5 74.5,2266.5C 74.5,2300.5 74.5,2334.5 74.5,2368.5C 125.167,2368.5 175.833,2368.5 226.5,2368.5C 226.5,2379.5 226.5,2390.5 226.5,2401.5C 163.5,2401.5 100.5,2401.5 37.5,2401.5C 37.5,2302.5 37.5,2203.5 37.5,2104.5 Z"/></g>
<g><path style="opacity:1" fill="#bb8bf0" d="M 287.5,2104.5 C 322.875,2104.51 358.041,2104.51 393,2104.5C 412.441,2106.2 430.941,2111.37 448.5,2120C 474.731,2135.78 487.731,2159.12 487.5,2190C 486.677,2228.82 468.011,2254.82 431.5,2268C 423.872,2270.32 416.205,2272.49 408.5,2274.5C 440.5,2316.5 472.5,2358.5 504.5,2400.5C 489.178,2401.67 473.844,2401.83 458.5,2401C 428.41,2360.15 398.077,2319.49 367.5,2279C 353.171,2278.5 338.837,2278.33 324.5,2278.5C 324.5,2319.5 324.5,2360.5 324.5,2401.5C 312.167,2401.5 299.833,2401.5 287.5,2401.5C 287.5,2302.5 287.5,2203.5 287.5,2104.5 Z M 324.5,2137.5 C 344.531,2137.81 362.698,2137.81 379,2137.5C 393.095,2138.17 406.595,2140.67 419.5,2145C 438.708,2153.73 448.375,2168.73 448.5,2190C 448.117,2213.37 437.117,2229.37 415.5,2238C 401.369,2242.58 387.203,2245.08 373,2245.5C 358.422,2245.21 342.255,2245.21 324.5,2245.5C 324.5,2209.5 324.5,2173.5 324.5,2137.5 Z"/></g>
<g><path style="opacity:1" fill="#bb8bf0" d="M 556.5,2104.5 C 568.833,2104.5 581.167,2104.5 593.5,2104.5C 593.5,2203.5 593.5,2302.5 593.5,2401.5C 581.167,2401.5 568.833,2401.5 556.5,2401.5C 556.5,2302.5 556.5,2203.5 556.5,2104.5 Z"/></g>
<g><path style="opacity:1" fill="#bb8af0" d="M 935.5,2104.5 C 947.833,2104.5 960.167,2104.5 972.5,2104.5C 972.333,2153.17 972.5,2201.83 973,2250.5C 1018.2,2202.3 1063.03,2153.8 1107.5,2105C 1122.83,2104.33 1138.17,2104.33 1153.5,2105C 1107.89,2153.94 1062.23,2202.94 1016.5,2252C 1065.46,2301.96 1114.79,2351.63 1164.5,2401C 1148.5,2401.67 1132.5,2401.67 1116.5,2401C 1068.45,2352.95 1020.62,2305.12 973,2257.5C 972.5,2305.5 972.333,2353.5 972.5,2401.5C 960.167,2401.5 947.833,2401.5 935.5,2401.5C 935.5,2302.5 935.5,2203.5 935.5,2104.5 Z"/></g>
<g><path style="opacity:1" fill="#9e0441" d="M 1303.5,2104.5 C 1320.5,2104.5 1337.5,2104.5 1354.5,2104.5C 1393.07,2203.48 1432.07,2302.32 1471.5,2401C 1451.93,2401.83 1432.43,2401.66 1413,2400.5C 1403.4,2375.87 1393.9,2351.21 1384.5,2326.5C 1347.5,2325.33 1310.5,2325.17 1273.5,2326C 1263.83,2351 1254.17,2376 1244.5,2401C 1224.83,2401.67 1205.17,2401.67 1185.5,2401C 1224.93,2302.19 1264.27,2203.36 1303.5,2104.5 Z M 1328.5,2175.5 C 1340.75,2210.59 1353.42,2245.59 1366.5,2280.5C 1341.5,2280.5 1316.5,2280.5 1291.5,2280.5C 1304.67,2245.82 1317,2210.82 1328.5,2175.5 Z"/></g>
<g><path style="opacity:1" fill="#9e0441" d="M 1812.5,2104.5 C 1830.83,2104.5 1849.17,2104.5 1867.5,2104.5C 1867.51,2166.48 1867.51,2228.31 1867.5,2290C 1868.22,2308.15 1873.72,2324.65 1884,2339.5C 1890.47,2346.98 1898.3,2352.48 1907.5,2356C 1929.69,2363.61 1952.02,2362.61 1974.5,2353C 1988.06,2345.07 1997.23,2333.57 2002,2318.5C 2004.58,2308.42 2006.41,2298.25 2007.5,2288C 2007.49,2226.98 2007.49,2165.81 2007.5,2104.5C 2025.83,2104.5 2044.17,2104.5 2062.5,2104.5C 2062.44,2169.8 2062.44,2233.97 2062.5,2297C 2057.78,2363.46 2022.62,2400.3 1957,2407.5C 1944.22,2407.39 1930.88,2407.39 1917,2407.5C 1851.9,2400.22 1817.06,2363.55 1812.5,2297.5C 1812.53,2233.84 1812.53,2169.5 1812.5,2104.5 Z"/></g>
<g><path style="opacity:1" fill="#9e0341" d="M 2131.5,2104.5 C 2149.83,2104.5 2168.17,2104.5 2186.5,2104.5C 2186.5,2203.5 2186.5,2302.5 2186.5,2401.5C 2168.17,2401.5 2149.83,2401.5 2131.5,2401.5C 2131.5,2302.5 2131.5,2203.5 2131.5,2104.5 Z"/></g>
<g><path style="opacity:1" fill="#9e0341" d="M 2256.5,2104.5 C 2274.83,2104.5 2293.17,2104.5 2311.5,2104.5C 2311.5,2188.5 2311.5,2272.5 2311.5,2356.5C 2357.83,2356.5 2404.17,2356.5 2450.5,2356.5C 2450.5,2371.5 2450.5,2386.5 2450.5,2401.5C 2385.83,2401.5 2321.17,2401.5 2256.5,2401.5C 2256.5,2302.5 2256.5,2203.5 2256.5,2104.5 Z"/></g>
<g><path style="opacity:1" fill="#9e0441" d="M 2590.5,2104.5 C 2607.5,2104.5 2624.5,2104.5 2641.5,2104.5C 2680.07,2203.48 2719.07,2302.32 2758.5,2401C 2738.93,2401.83 2719.43,2401.66 2700,2400.5C 2690.4,2375.87 2680.9,2351.21 2671.5,2326.5C 2634.5,2325.33 2597.5,2325.17 2560.5,2326C 2550.83,2351 2541.17,2376 2531.5,2401C 2511.83,2401.67 2492.17,2401.67 2472.5,2401C 2511.93,2302.19 2551.27,2203.36 2590.5,2104.5 Z M 2615.5,2175.5 C 2627.75,2210.59 2640.42,2245.59 2653.5,2280.5C 2628.5,2280.5 2603.5,2280.5 2578.5,2280.5C 2591.67,2245.82 2604,2210.82 2615.5,2175.5 Z"/></g>
<g><path style="opacity:1" fill="#9e0341" d="M 2799.5,2104.5 C 2839.09,2104.55 2877.93,2104.55 2916,2104.5C 2923.81,2105.25 2931.81,2106.59 2940,2108.5C 2971.53,2111.31 2995.53,2126.64 3012,2154.5C 3020.86,2177.7 3021.86,2201.04 3015,2224.5C 3005.63,2247.35 2989.47,2263.51 2966.5,2273C 2960.91,2275.2 2955.24,2277.2 2949.5,2279C 2978.83,2319.67 3008.17,2360.33 3037.5,2401C 3015.5,2401.67 2993.5,2401.67 2971.5,2401C 2944.83,2363 2918.17,2325 2891.5,2287C 2879.17,2286.5 2866.84,2286.33 2854.5,2286.5C 2854.5,2324.83 2854.5,2363.17 2854.5,2401.5C 2836.17,2401.5 2817.83,2401.5 2799.5,2401.5C 2799.5,2302.5 2799.5,2203.5 2799.5,2104.5 Z M 2854.5,2149.5 C 2874.29,2149.85 2892.79,2149.85 2910,2149.5C 2915.17,2150.86 2920.17,2151.86 2925,2152.5C 2952,2155.82 2964.83,2170.99 2963.5,2198C 2960.14,2219.37 2947.8,2232.37 2926.5,2237C 2920.93,2238.05 2915.43,2239.21 2910,2240.5C 2909,2240.17 2908,2239.83 2907,2239.5C 2904.33,2240.17 2901.67,2240.83 2899,2241.5C 2885.52,2241.05 2870.68,2241.05 2854.5,2241.5C 2854.5,2210.83 2854.5,2180.17 2854.5,2149.5 Z"/></g>
<g><path style="opacity:1" fill="#bb8aef" d="M 652.5,2569.5 C 669.943,2567.81 686.776,2570.15 703,2576.5C 702.854,2583.13 703.021,2589.63 703.5,2596C 693.434,2593.59 683.267,2591.42 673,2589.5C 669.667,2590.83 666.333,2590.83 663,2589.5C 657.483,2590.34 652.317,2592.17 647.5,2595C 642.804,2601.13 642.304,2607.63 646,2614.5C 647.558,2616.36 649.391,2617.86 651.5,2619C 663.42,2622.58 675.42,2625.92 687.5,2629C 706.52,2637.55 713.353,2652.05 708,2672.5C 702.341,2687.59 691.508,2696.42 675.5,2699C 669.213,2700.01 662.88,2700.51 656.5,2700.5C 643.934,2701.18 631.6,2699.01 619.5,2694C 618.521,2687.26 618.188,2680.42 618.5,2673.5C 625.687,2675.84 633.02,2677.67 640.5,2679C 647.856,2679.83 654.356,2680.33 660,2680.5C 669.189,2679.89 676.855,2676.22 683,2669.5C 686.438,2656.9 681.604,2649.4 668.5,2647C 655.909,2645.19 643.909,2641.52 632.5,2636C 622.954,2629.41 618.287,2620.24 618.5,2608.5C 619.914,2586.76 631.247,2573.76 652.5,2569.5 Z"/></g>
<g><path style="opacity:1" fill="#bb8aef" d="M 1107.5,2569.5 C 1116.84,2569.33 1126.17,2569.5 1135.5,2570C 1141.29,2570.59 1146.96,2571.76 1152.5,2573.5C 1153.5,2580.13 1153.83,2586.8 1153.5,2593.5C 1145.31,2592.11 1137.14,2590.77 1129,2589.5C 1125.67,2590.83 1122.33,2590.83 1119,2589.5C 1086.51,2594.01 1071.84,2612.67 1075,2645.5C 1078.82,2667.26 1091.82,2678.93 1114,2680.5C 1119.43,2680.8 1125.59,2680.3 1132.5,2679C 1133.17,2678.67 1133.83,2678.33 1134.5,2678C 1134.36,2668.9 1134.02,2659.73 1133.5,2650.5C 1124.19,2649.5 1114.86,2649.17 1105.5,2649.5C 1105.5,2643.17 1105.5,2636.83 1105.5,2630.5C 1123.18,2630.17 1140.85,2630.5 1158.5,2631.5C 1158.41,2652.37 1158.41,2673.2 1158.5,2694C 1149.86,2697.32 1141.19,2699.32 1132.5,2700C 1112.09,2703.7 1092.76,2700.36 1074.5,2690C 1057.34,2677.02 1049.01,2659.68 1049.5,2638C 1051.02,2599.98 1070.36,2577.15 1107.5,2569.5 Z"/></g>
<g><path style="opacity:1" fill="#bb8aef" d="M 1888.5,2569.5 C 1897.17,2569.33 1905.84,2569.5 1914.5,2570C 1916.43,2570.25 1918.27,2570.75 1920,2571.5C 1920.33,2571.17 1920.67,2570.83 1921,2570.5C 1923.45,2571.41 1925.95,2572.24 1928.5,2573C 1929.48,2579.74 1929.81,2586.58 1929.5,2593.5C 1922.63,2592.23 1915.79,2590.89 1909,2589.5C 1871.37,2589.68 1855.37,2610.01 1861,2650.5C 1866.26,2668.42 1878.26,2678.42 1897,2680.5C 1900.33,2679.17 1903.67,2679.17 1907,2680.5C 1914.83,2679.33 1922.66,2678 1930.5,2676.5C 1930.67,2683.51 1930.5,2690.51 1930,2697.5C 1929.67,2697.17 1929.33,2696.83 1929,2696.5C 1924.43,2698.55 1919.59,2699.72 1914.5,2700C 1894.31,2703.56 1875.31,2699.9 1857.5,2689C 1838.97,2672.75 1831.47,2652.25 1835,2627.5C 1839.23,2595.44 1857.06,2576.11 1888.5,2569.5 Z"/></g>
<g><path style="opacity:1" fill="#bb8aef" d="M 868.5,2571.5 C 876.5,2571.5 884.5,2571.5 892.5,2571.5C 892.5,2613.83 892.5,2656.17 892.5,2698.5C 884.5,2698.5 876.5,2698.5 868.5,2698.5C 868.5,2656.17 868.5,2613.83 868.5,2571.5 Z"/></g>
<g><path style="opacity:1" fill="#bb8aef" d="M 1319.5,2571.5 C 1327.5,2571.5 1335.5,2571.5 1343.5,2571.5C 1343.08,2600.19 1343.58,2628.86 1345,2657.5C 1347.58,2671.41 1355.91,2679.08 1370,2680.5C 1391.62,2681.21 1402.79,2669.71 1403.5,2646C 1403.08,2621.54 1402.75,2597.04 1402.5,2572.5C 1410.81,2571.33 1419.15,2571.17 1427.5,2572C 1427.32,2598.28 1427.32,2624.61 1427.5,2651C 1425,2684.33 1407,2700.83 1373.5,2700.5C 1351.06,2702.51 1334.56,2693.51 1324,2673.5C 1321.56,2667.4 1320.23,2661.07 1320,2654.5C 1319.5,2626.84 1319.33,2599.17 1319.5,2571.5 Z"/></g>
<g><path style="opacity:1" fill="#bb8af0" d="M 1621.5,2571.5 C 1629.2,2571.17 1636.86,2571.5 1644.5,2572.5C 1661.17,2614.17 1677.83,2655.83 1694.5,2697.5C 1685.86,2698.5 1677.19,2698.83 1668.5,2698.5C 1665,2687.49 1661,2676.66 1656.5,2666C 1640.84,2665.5 1625.17,2665.33 1609.5,2665.5C 1606,2676.51 1602,2687.34 1597.5,2698C 1588.83,2698.67 1580.17,2698.67 1571.5,2698C 1588.66,2656.01 1605.33,2613.85 1621.5,2571.5 Z M 1632.5,2604.5 C 1633.12,2604.61 1633.62,2604.94 1634,2605.5C 1638.85,2619.2 1643.69,2632.86 1648.5,2646.5C 1638.16,2646.67 1627.83,2646.5 1617.5,2646C 1623.39,2632.49 1628.39,2618.66 1632.5,2604.5 Z"/></g>
<g><path style="opacity:1" fill="#bb8af0" d="M 2088.5,2571.5 C 2096.5,2571.5 2104.5,2571.5 2112.5,2571.5C 2112.5,2588.83 2112.5,2606.17 2112.5,2623.5C 2131.83,2623.5 2151.17,2623.5 2170.5,2623.5C 2170.5,2606.17 2170.5,2588.83 2170.5,2571.5C 2178.5,2571.5 2186.5,2571.5 2194.5,2571.5C 2194.5,2613.83 2194.5,2656.17 2194.5,2698.5C 2186.5,2698.5 2178.5,2698.5 2170.5,2698.5C 2170.5,2679.83 2170.5,2661.17 2170.5,2642.5C 2151.17,2642.5 2131.83,2642.5 2112.5,2642.5C 2112.5,2661.17 2112.5,2679.83 2112.5,2698.5C 2104.5,2698.5 2096.5,2698.5 2088.5,2698.5C 2088.5,2656.17 2088.5,2613.83 2088.5,2571.5 Z"/></g>
<g><path style="opacity:1" fill="#bb8bf1" d="M 2358.5,2571.5 C 2386.17,2571.5 2413.83,2571.5 2441.5,2571.5C 2441.5,2577.83 2441.5,2584.17 2441.5,2590.5C 2421.83,2590.5 2402.17,2590.5 2382.5,2590.5C 2382.5,2601.5 2382.5,2612.5 2382.5,2623.5C 2399.17,2623.5 2415.83,2623.5 2432.5,2623.5C 2432.5,2629.83 2432.5,2636.17 2432.5,2642.5C 2415.83,2642.5 2399.17,2642.5 2382.5,2642.5C 2382.5,2654.83 2382.5,2667.17 2382.5,2679.5C 2403.17,2679.5 2423.83,2679.5 2444.5,2679.5C 2444.5,2685.83 2444.5,2692.17 2444.5,2698.5C 2415.83,2698.5 2387.17,2698.5 2358.5,2698.5C 2358.5,2656.17 2358.5,2613.83 2358.5,2571.5 Z"/></g>
</svg>
